<svg xmlns="http://www.w3.org/2000/svg" width="13" height="16" viewBox="0 0 13 16">
  <defs>
    <style>
      .cls-1 {
        fill: #464774;
        fill-rule: evenodd;
      }
    </style>
  </defs>
  <path class="cls-1" d="M1005.7,575a1.291,1.291,0,0,0-.66.184,1.309,1.309,0,0,0-1.29-1.184,1.278,1.278,0,0,1-1.95-.333,1.253,1.253,0,0,0-.65.179v-3.513a1.3,1.3,0,1,0-2.6,0v8.922a0.328,0.328,0,0,1-.154.283,0.315,0.315,0,0,1-.316.015l-2.087-1.071a1.368,1.368,0,0,0-.616-0.149A1.4,1.4,0,0,0,994,579.745V580a0.338,0.338,0,0,0,.1.244l3.751,3.591A4.16,4.16,0,0,0,1000.74,585h2.03a4.289,4.289,0,0,0,4.23-4.333v-4.334A1.316,1.316,0,0,0,1005.7,575Z" transform="translate(-994 -569)"/>
</svg>
