<svg xmlns="http://www.w3.org/2000/svg" width="13.344" height="14" viewBox="0 0 13.344 14">
  <defs>
    <style>
      .cls-1 {
        fill: #909090;
        fill-rule: evenodd;
      }
    </style>
  </defs>
  <path class="cls-1" d="M531.029,974.752a3.512,3.512,0,0,1-2.481-5.991L535.8,961.5a2.737,2.737,0,0,1,3.862,3.866l-6.816,6.824a1.644,1.644,0,0,1-2.323-2.326l4.618-4.622a0.4,0.4,0,1,1,.563.565l-4.617,4.622a0.845,0.845,0,0,0,1.195,1.2L539.1,964.8a1.941,1.941,0,0,0-2.735-2.737l-7.255,7.263a2.712,2.712,0,0,0,3.833,3.838L540.2,965.9a0.4,0.4,0,0,1,.564.565l-7.256,7.263A3.48,3.48,0,0,1,531.029,974.752Z" transform="translate(-527.531 -960.75)"/>
</svg>
