<svg xmlns="http://www.w3.org/2000/svg" width="26.031" height="23" viewBox="0 0 26.031 23">
  <defs>
    <style>
      .cls-1 {
        fill: #464774;
      }

      .cls-1, .cls-2, .cls-3 {
        fill-rule: evenodd;
      }

      .cls-2 {
        fill: #fdfdfd;
      }

      .cls-3 {
        fill: #fff;
      }
    </style>
  </defs>
  <path class="cls-1" d="M491.534,442H480.452a1.922,1.922,0,0,0-1.664.959l-5.541,9.584a1.918,1.918,0,0,0,0,1.919l5.541,9.584a1.922,1.922,0,0,0,1.664.959h11.082a1.92,1.92,0,0,0,1.663-.959l5.542-9.584a1.918,1.918,0,0,0,0-1.919l-5.542-9.584A1.92,1.92,0,0,0,491.534,442Z" transform="translate(-473 -442)"/>
  <path id="Shape_1124_copy_2" data-name="Shape 1124 copy 2" class="cls-2" d="M485.183,459c-0.11,0-.61-0.007-0.675-0.008a4.687,4.687,0,0,1-2.148-.494,5.475,5.475,0,0,1-2.778-2.849,0.248,0.248,0,0,0-.084-0.049,2.109,2.109,0,0,1-1.459-1.668,2.211,2.211,0,0,1,.73-2.12,1.787,1.787,0,0,1,.624-0.342,0.3,0.3,0,0,0,.234-0.209,5.426,5.426,0,0,1,3.659-3.07,6.4,6.4,0,0,1,1.487-.176c1.086-.023,2.189-0.015,3.256-0.007h0.139a5.465,5.465,0,0,1,5.244,3.338,0.247,0.247,0,0,0,.062.08,1.941,1.941,0,0,1,1.268.988,2.4,2.4,0,0,1,.214,1.556,2.084,2.084,0,0,1-1.444,1.627,0.244,0.244,0,0,0-.1.078,5.382,5.382,0,0,1-3.686,3.125,5.651,5.651,0,0,1-1.235.18c-0.811.019-1.635,0.019-2.431,0.018h-0.876Zm-0.679-.548h0.006c0.006,0,.582.009,0.678,0.008h0.871c0.793,0,1.613,0,2.418-.018a5.049,5.049,0,0,0,1.114-.163,4.8,4.8,0,0,0,3.325-2.828,0.74,0.74,0,0,1,.411-0.359,1.532,1.532,0,0,0,1.093-1.218,1.579,1.579,0,0,0-1.093-1.926,0.684,0.684,0,0,1-.408-0.37,4.9,4.9,0,0,0-4.755-3.028h-0.139c-1.063-.008-2.162-0.016-3.241.007a5.862,5.862,0,0,0-1.36.159,4.9,4.9,0,0,0-3.3,2.778,0.836,0.836,0,0,1-.58.5,1.281,1.281,0,0,0-.43.242,1.7,1.7,0,0,0-.535,1.6,1.581,1.581,0,0,0,1.093,1.251,0.69,0.69,0,0,1,.411.339,4.946,4.946,0,0,0,2.515,2.584,4.091,4.091,0,0,0,1.9.442H484.5Z" transform="translate(-473 -442)"/>
  <path id="Shape_1124_copy_2-2" data-name="Shape 1124 copy 2" class="cls-3" d="M491.2,452.639a2.812,2.812,0,0,0-2.214-1.994,41.414,41.414,0,0,0-4.22-.088,5.706,5.706,0,0,0-1.591.354,2.762,2.762,0,0,0-1.536,2.927,2.819,2.819,0,0,0,2.413,2.345c0.583,0.045,1.167.075,1.752,0.085,0.821,0.014.821,0,.849,0.8,0,0.033,0,.067,0,0.1,0.034,0.412.294,0.545,0.64,0.323,0.825-.529,1.654-1.051,2.471-1.594A2.864,2.864,0,0,0,491.2,452.639Zm-6.829,1.717a0.851,0.851,0,0,1-.925-0.866,0.925,0.925,0,0,1,.906-0.94,0.949,0.949,0,0,1,.923.9A0.876,0.876,0,0,1,484.372,454.356Zm5.133-.886a0.866,0.866,0,0,1-.933.885,0.88,0.88,0,0,1-.915-0.9,0.922,0.922,0,0,1,.926-0.906A0.937,0.937,0,0,1,489.505,453.47Z" transform="translate(-473 -442)"/>
</svg>
