<svg xmlns="http://www.w3.org/2000/svg" width="132" height="87" viewBox="0 0 132 87">
  <defs>
    <style>
      .cls-1 {
        fill: #808cc7;
      }

      .cls-1, .cls-2 {
        fill-rule: evenodd;
      }

      .cls-2 {
        fill: #fff;
      }
    </style>
  </defs>
  <path class="cls-1" d="M169.781,1348c-0.853,0-4.74-.06-5.24-0.06a35.9,35.9,0,0,1-16.68-3.91,42.965,42.965,0,0,1-21.573-22.54,1.98,1.98,0,0,0-.654-0.39,16.587,16.587,0,0,1-11.329-13.19c-1.158-6.46,1.067-13.04,5.669-16.77a13.977,13.977,0,0,1,4.847-2.71,2.365,2.365,0,0,0,1.818-1.65c5.96-12.72,15.52-20.89,28.413-24.28a48.683,48.683,0,0,1,11.542-1.4c8.434-.18,17-0.12,25.284-0.06l1.079,0.01c18.908,0.14,32.607,9.02,40.717,26.41a2.245,2.245,0,0,0,.484.64,15.076,15.076,0,0,1,9.847,7.81,19.322,19.322,0,0,1,1.658,12.31c-1.123,6.16-5,10.61-11.21,12.87a1.862,1.862,0,0,0-.781.62c-5.935,13.04-15.565,21.36-28.621,24.72a42.659,42.659,0,0,1-9.6,1.42c-6.3.15-12.691,0.15-18.875,0.15h-6.8Zm-5.271-4.33h0.047c0.045,0,4.517.07,5.257,0.06,2.256-.01,4.512,0,6.768,0,6.158,0,12.525,0,18.771-.15a38.384,38.384,0,0,0,8.652-1.29c11.924-3.07,20.371-10.39,25.824-22.37a5.81,5.81,0,0,1,3.186-2.84c4.852-1.77,7.628-4.92,8.487-9.64,1.1-6.01-1.092-13.34-8.488-15.23a5.381,5.381,0,0,1-3.167-2.93c-7.461-16-19.538-23.83-36.92-23.96l-1.08-.01c-8.254-.05-16.79-0.12-25.165.06a44.745,44.745,0,0,0-10.563,1.26c-11.624,3.06-20.256,10.45-25.656,21.98a6.535,6.535,0,0,1-4.5,3.94,9.688,9.688,0,0,0-3.337,1.91c-3.358,2.73-5.028,7.83-4.156,12.69a12.455,12.455,0,0,0,8.491,9.9,5.368,5.368,0,0,1,3.185,2.68,38.8,38.8,0,0,0,19.529,20.44,31.342,31.342,0,0,0,14.789,3.5h0.048Z" transform="translate(-114 -1261)"/>
  <path id="Shape_1320_copy" data-name="Shape 1320 copy" class="cls-2" d="M216.51,1297.68c-2.031-7.6-9.293-14.91-17.194-15.77-6.5-.71-28.433-1.16-32.764-0.7a43.811,43.811,0,0,0-12.354,2.8c-8.388,3.58-13.472,13.94-11.926,23.15,1.66,9.9,9.81,17.86,18.737,18.56,4.522,0.35,9.061.59,13.6,0.67,6.378,0.11,6.379.02,6.6,6.32,0.009,0.27.009,0.53,0.031,0.8,0.267,3.25,2.281,4.3,4.966,2.55,6.408-4.19,12.849-8.32,19.188-12.61C214.24,1317.46,219.469,1308.77,216.51,1297.68Zm-53.026,13.58c-4.353.04-6.9-2.59-7.188-6.85-0.3-4.46,3.932-7.53,7.037-7.44a7.444,7.444,0,0,1,7.165,7.17A6.863,6.863,0,0,1,163.484,1311.26Zm39.855-7c-0.317,3.64-2.4,7.27-7.241,7a6.9,6.9,0,0,1-7.108-7.1,7.225,7.225,0,0,1,7.193-7.16C199.943,1297.02,203.659,1300.58,203.339,1304.26Z" transform="translate(-114 -1261)"/>
</svg>
