<svg xmlns="http://www.w3.org/2000/svg" width="10.375" height="14" viewBox="0 0 10.375 14">
  <defs>
    <style>
      .cls-1 {
        fill: #909090;
        fill-rule: evenodd;
      }
    </style>
  </defs>
  <path class="cls-1" d="M562.6,963.161l-2.6-2.584a0.268,0.268,0,0,0-.187-0.077h-7.219a0.264,0.264,0,0,0-.265.264v13.472a0.264,0.264,0,0,0,.265.264h9.818a0.265,0.265,0,0,0,.265-0.264V963.348A0.264,0.264,0,0,0,562.6,963.161Zm-0.828-.02H560.02V961.4Zm-8.912,10.831V961.028h6.634v2.378a0.265,0.265,0,0,0,.265.264h2.388v10.3h-9.287Zm4.644-9.246a3.048,3.048,0,0,0-3.052,3.038,3.006,3.006,0,0,0,1.06,2.3l-0.376.9a0.264,0.264,0,0,0,.066.3,0.27,0.27,0,0,0,.179.068,0.266,0.266,0,0,0,.125-0.031l1.157-.614A3.04,3.04,0,1,0,557.5,964.726Zm0,5.548a2.51,2.51,0,0,1-.786-0.125,0.269,0.269,0,0,0-.208.018l-0.6.318,0.167-.4a0.265,0.265,0,0,0-.086-0.313,2.485,2.485,0,0,1-1.01-2.009A2.521,2.521,0,1,1,557.5,970.274Zm-1.194-3.17a0.528,0.528,0,1,1-.531.528A0.529,0.529,0,0,1,556.306,967.1Zm1.326,0a0.528,0.528,0,1,1-.53.528A0.529,0.529,0,0,1,557.632,967.1Zm1.327,0a0.528,0.528,0,1,1-.531.528A0.529,0.529,0,0,1,558.959,967.1Z" transform="translate(-552.313 -960.5)"/>
</svg>
