<svg xmlns="http://www.w3.org/2000/svg" width="20" height="16" viewBox="0 0 20 16">
  <defs>
    <style>
      .cls-1 {
        fill: #464774;
        fill-rule: evenodd;
      }
    </style>
  </defs>
  <path class="cls-1" d="M1009.05,782.642v6.339a1.015,1.015,0,0,1-1.01,1.024H995.96a1.019,1.019,0,0,1-1.014-1.024v-6.339a1.025,1.025,0,0,1,.477-0.868l6.037-3.8a1.017,1.017,0,0,1,1.08,0l6.04,3.8A1.035,1.035,0,0,1,1009.05,782.642Zm2.47-2.829-8.98-5.661a1.017,1.017,0,0,0-1.08,0l-8.983,5.661a1.029,1.029,0,0,0-.323,1.41,1.007,1.007,0,0,0,1.4.327l8.448-5.322,8.45,5.321a0.976,0.976,0,0,0,.53.156,1,1,0,0,0,.86-0.482A1.02,1.02,0,0,0,1011.52,779.813Z" transform="translate(-992 -774)"/>
</svg>
