<svg xmlns="http://www.w3.org/2000/svg" width="16" height="16" viewBox="0 0 16 16">
  <defs>
    <style>
      .cls-1 {
        fill: #464774;
        fill-rule: evenodd;
      }
    </style>
  </defs>
  <path id="Shape_1119_copy_3" data-name="Shape 1119 copy 3" class="cls-1" d="M1006.13,529.25h-0.75V528h-1.25v1.25h-8.255V528h-1.25v1.25h-0.75A1.877,1.877,0,0,0,992,531.125v11A1.877,1.877,0,0,0,993.875,544h12.255a1.875,1.875,0,0,0,1.87-1.875v-11A1.875,1.875,0,0,0,1006.13,529.25Zm0.62,12.875a0.624,0.624,0,0,1-.62.625H993.875a0.625,0.625,0,0,1-.625-0.625v-8.25h13.5v8.25Zm0-9.5h-13.5v-1.5a0.625,0.625,0,0,1,.625-0.625h0.75v1.25h1.25V530.5h8.255v1.25h1.25V530.5h0.75a0.624,0.624,0,0,1,.62.625v1.5Zm-12.375,2.563h1.25v1.25h-1.25v-1.25Zm2.5,0h1.25v1.25h-1.25v-1.25Zm2.5,0h1.255v1.25h-1.255v-1.25Zm2.5,0h1.25v1.25h-1.25v-1.25Zm2.5,0h1.25v1.25h-1.25v-1.25Zm-10,2.5h1.25v1.25h-1.25v-1.25Zm2.5,0h1.25v1.25h-1.25v-1.25Zm2.5,0h1.255v1.25h-1.255v-1.25Zm2.5,0h1.25v1.25h-1.25v-1.25Zm-7.5,2.5h1.25v1.25h-1.25v-1.25Zm2.5,0h1.25v1.25h-1.25v-1.25Zm2.5,0h1.255v1.25h-1.255v-1.25Zm2.5,0h1.25v1.25h-1.25v-1.25Zm2.5-2.5h1.25v1.25h-1.25v-1.25Z" transform="translate(-992 -528)"/>
</svg>
