<svg xmlns="http://www.w3.org/2000/svg" width="14.031" height="14" viewBox="0 0 14.031 14">
  <defs>
    <style>
      .cls-1 {
        fill: #909090;
        fill-rule: evenodd;
      }
    </style>
  </defs>
  <path class="cls-1" d="M796.28,928.365a0.442,0.442,0,0,0-.465-0.088L782.64,933.53a0.437,0.437,0,0,0-.111.748l4.227,3.372v2.415a0.438,0.438,0,0,0,.232.386,0.446,0.446,0,0,0,.207.051,0.435,0.435,0,0,0,.243-0.073l1.281-.851,2.557,2.547a0.441,0.441,0,0,0,.311.128,0.486,0.486,0,0,0,.1-0.011,0.438,0.438,0,0,0,.316-0.288l4.392-13.132a0.438,0.438,0,0,0-.115-0.457h0Zm-2.125,1.517-6.994,6.971-3.495-2.789Zm-6.521,9.365V938.5l0.452,0.451Zm3.761,1.759-3.58-3.567,7.158-7.135Z" transform="translate(-782.375 -928.25)"/>
</svg>
