<svg xmlns="http://www.w3.org/2000/svg" width="14" height="14" viewBox="0 0 14 14">
  <defs>
    <style>
      .cls-1 {
        fill: #909090;
        fill-rule: evenodd;
      }
    </style>
  </defs>
  <path class="cls-1" d="M512,960a7,7,0,1,0,7,7A7.006,7.006,0,0,0,512,960Zm0,13.239A6.24,6.24,0,1,1,518.241,967,6.223,6.223,0,0,1,512,973.241Zm-2.285-8.558a0.757,0.757,0,1,1-.757.757A0.756,0.756,0,0,1,509.715,964.683Zm4.681,0a0.757,0.757,0,1,1-.757.757A0.756,0.756,0,0,1,514.4,964.683Zm-2.409,6.194a4.391,4.391,0,0,0,3.669-1.991l-0.635-.411a3.595,3.595,0,0,1-6.042,0l-0.635.411a4.393,4.393,0,0,0,3.153,1.963A4.236,4.236,0,0,0,511.987,970.877Z" transform="translate(-505 -960)"/>
</svg>
